<?xml version="1.0" standalone="no"?>
<!DOCTYPE svg PUBLIC "-//W3C//DTD SVG 20010904//EN"
 "http://www.w3.org/TR/2001/REC-SVG-20010904/DTD/svg10.dtd">
<svg version="1.0" xmlns="http://www.w3.org/2000/svg"
 width="570.000000pt" height="570.000000pt" viewBox="0 0 570.000000 570.000000"
 preserveAspectRatio="xMidYMid meet">

<g transform="translate(0.000000,570.000000) scale(0.100000,-0.100000)"
fill="#000000" stroke="none">
<path d="M2595 5689 c-241 -23 -506 -83 -730 -165 -263 -97 -583 -278 -800
-454 -44 -35 -136 -118 -204 -184 -890 -870 -1114 -2197 -558 -3309 367 -736
1048 -1285 1842 -1487 670 -171 1359 -97 1975 211 287 144 505 302 741 538
236 236 394 454 538 741 401 803 401 1737 0 2540 -174 347 -425 665 -724 917
-227 191 -559 384 -840 487 -386 142 -838 202 -1240 165z m513 -399 c196 -21
418 -73 592 -137 807 -301 1399 -1001 1559 -1843 56 -292 56 -628 0 -920 -131
-690 -555 -1292 -1161 -1651 -301 -179 -641 -292 -990 -329 -125 -13 -391 -13
-516 0 -926 99 -1718 715 -2045 1590 -149 401 -188 873 -106 1311 179 966 960
1757 1923 1945 214 41 533 56 744 34z"/>
<path d="M3910 4449 c-30 -4 -73 -14 -95 -22 -89 -33 -1544 -671 -1595 -700
-71 -41 -197 -161 -237 -229 -32 -52 -679 -1526 -713 -1624 -60 -170 -13 -361
119 -487 118 -113 287 -162 437 -127 63 14 1615 694 1681 736 88 56 183 160
230 251 23 43 189 420 371 838 349 801 361 835 347 944 -21 151 -91 266 -210
343 -97 63 -226 93 -335 77z m125 -414 c16 -15 25 -36 25 -54 0 -35 -647
-1527 -688 -1586 -15 -22 -45 -52 -67 -67 -55 -38 -1553 -690 -1588 -691 -39
-1 -77 38 -77 79 0 22 115 297 324 776 178 409 333 762 344 784 33 65 87 105
227 167 740 327 1415 616 1443 616 22 1 41 -7 57 -24z"/>
<path d="M2757 3230 c-111 -28 -209 -110 -260 -218 -29 -61 -32 -76 -32 -162
0 -86 3 -101 32 -162 40 -84 107 -151 193 -192 58 -28 75 -31 160 -31 85 0
102 3 160 31 83 39 155 111 194 194 28 58 31 75 31 160 0 85 -3 102 -31 160
-64 136 -186 219 -332 226 -42 2 -94 -1 -115 -6z"/>
</g>
</svg>
